<svg xmlns="http://www.w3.org/2000/svg" fill="none" width="920" height="170"><g clip-path="url(#prefix__a)"><rect fill="#fff" width="920" height="170" rx="16"/><g clip-path="url(#prefix__b)"><path d="M384.5 24.688h-120v120h120v-120z" fill="#41BDF5"/><mask id="prefix__a" width="97" height="85" x="276" y="41" maskUnits="userSpaceOnUse" style="mask-type:alpha"><path d="M287.55 123.861V91.787h-8.341a2.24 2.24 0 01-1.597-3.81l44.88-45.65a2.8 2.8 0 013.96-.033l.03.03 23.424 23.71v-4.392c0-1.03.836-1.867 1.867-1.867h7.778c1.031 0 1.867.836 1.867 1.867v16.113l9.976 10.228a2.24 2.24 0 01-1.603 3.804h-8.373v32.074c0 1.03-.836 1.867-1.867 1.867h-70.134a1.867 1.867 0 01-1.867-1.867zm49.534-39.182c.225-.472.35-1 .35-1.557 0-1.994-1.61-3.61-3.597-3.61a3.604 3.604 0 00-3.597 3.61c0 1.994 1.61 3.61 3.597 3.61.556 0 1.082-.126 1.55-.351l5.166 5.183v5.02l-6.476 6.499V98.32a3.611 3.611 0 002.398-3.405c0-1.994-1.61-3.61-3.597-3.61a3.603 3.603 0 00-3.597 3.61c0 1.572 1 2.91 2.398 3.405v7.169l-6 6.017V76.159l4.92-4.942a3.57 3.57 0 001.55.352 3.604 3.604 0 003.592-3.61c0-1.994-1.61-3.61-3.597-3.61a3.604 3.604 0 00-3.598 3.61c0 .557.126 1.085.35 1.556l-4.428 4.444-4.428-4.444c.225-.47.35-1 .35-1.556 0-1.994-1.61-3.61-3.597-3.61a3.604 3.604 0 00-3.598 3.61c0 1.993 1.61 3.61 3.597 3.61a3.57 3.57 0 001.55-.352l4.925 4.942v25.24l-8.634-8.666v-6.928a3.611 3.611 0 002.4-3.405 3.604 3.604 0 00-3.599-3.61 3.604 3.604 0 00-3.598 3.61 3.61 3.61 0 002.4 3.405v4.52l-6.717-6.739V76.9a3.61 3.61 0 002.4-3.404 3.605 3.605 0 00-3.599-3.61 3.603 3.603 0 00-3.597 3.61 3.611 3.611 0 002.398 3.404v7.684l7.418 7.445h-4.265a3.6 3.6 0 00-3.393-2.407 3.603 3.603 0 00-3.597 3.61c0 1.994 1.61 3.61 3.595 3.61a3.6 3.6 0 003.393-2.406h6.664l10.33 10.367v18.017l-5.516-5.536v-6.927a3.612 3.612 0 002.4-3.405 3.602 3.602 0 00-3.597-3.61 3.605 3.605 0 00-3.598 3.61 3.612 3.612 0 002.398 3.405v4.521l-8.025-8.054c.225-.472.35-1 .35-1.557a3.604 3.604 0 00-3.598-3.61 3.603 3.603 0 00-3.597 3.61c0 1.994 1.61 3.61 3.596 3.61.556 0 1.082-.126 1.55-.352l8.026 8.055h-4.26a3.6 3.6 0 00-3.392-2.408 3.604 3.604 0 00-3.598 3.61c0 1.994 1.61 3.61 3.598 3.61a3.6 3.6 0 003.393-2.407h6.664l6.715 6.74h3.393l6.955-6.98h6.423a3.601 3.601 0 003.393 2.407 3.604 3.604 0 003.598-3.611c0-1.994-1.61-3.61-3.597-3.61a3.601 3.601 0 00-3.393 2.407h-7.418l-6.458 6.48v-7.907l7.692-7.72h12.42a3.599 3.599 0 003.39 2.407 3.604 3.604 0 003.596-3.61c0-1.994-1.61-3.61-3.597-3.61a3.599 3.599 0 00-3.394 2.407h-10.02l7.177-7.204v-6.017l5.164-5.183c.47.225.996.352 1.55.352a3.604 3.604 0 003.6-3.61 3.604 3.604 0 00-3.599-3.611 3.603 3.603 0 00-3.597 3.61c0 .558.126 1.085.35 1.557l-3.469 3.48v-11.02a3.611 3.611 0 002.398-3.42 3.605 3.605 0 00-3.598-3.61 3.604 3.604 0 00-3.598 3.61 3.612 3.612 0 002.406 3.407v11.02l-3.47-3.481zm-31.067 34.547c-.795 0-1.44-.646-1.44-1.444 0-.798.645-1.444 1.44-1.444.795 0 1.44.646 1.44 1.444 0 .798-.645 1.444-1.44 1.444zm10.553-10.831c-.795 0-1.44-.647-1.44-1.444 0-.798.645-1.444 1.44-1.444a1.44 1.44 0 011.438 1.444c0 .797-.644 1.444-1.438 1.444zm-12.472-1.685c-.794 0-1.44-.646-1.44-1.444 0-.798.646-1.444 1.44-1.444.795 0 1.439.646 1.439 1.444 0 .798-.644 1.444-1.439 1.444zm-1.2-12.034a1.442 1.442 0 01-1.438-1.445c0-.797.644-1.444 1.44-1.444.794 0 1.438.647 1.438 1.444 0 .798-.644 1.445-1.44 1.445zm29.98 1.684a1.441 1.441 0 01-1.439-1.444c0-.797.644-1.444 1.439-1.444s1.44.647 1.44 1.444c0 .798-.645 1.444-1.44 1.444zm16.31 11.072c-.796 0-1.44-.646-1.44-1.444 0-.798.644-1.444 1.44-1.444.793 0 1.438.646 1.438 1.444 0 .798-.645 1.444-1.439 1.444zm-6.237 11.553a1.44 1.44 0 01-1.423-1.444c0-.797.643-1.444 1.44-1.444.793 0 1.437.647 1.437 1.444a1.44 1.44 0 01-1.438 1.444zm6.732-34.42a1.44 1.44 0 01-1.44-1.443c0-.797.643-1.444 1.44-1.444a1.443 1.443 0 010 2.888zm-7.916-9.386a1.444 1.444 0 01.002-2.888 1.443 1.443 0 01.001 2.888zm-9.592-5.776a1.441 1.441 0 01-1.44-1.445c0-.797.645-1.444 1.44-1.444.793 0 1.438.647 1.438 1.445 0 .797-.645 1.444-1.44 1.444zm-15.35 0a1.444 1.444 0 010-2.89c.796 0 1.44.648 1.44 1.446 0 .797-.644 1.444-1.44 1.444zm-12.47 5.536a1.444 1.444 0 01-1.44-1.461c0-.796.645-1.443 1.44-1.443.795 0 1.439.647 1.439 1.445a1.443 1.443 0 01-1.44 1.444zm9.114 8.888a1.443 1.443 0 010-2.886 1.443 1.443 0 010 2.888zm20.386.724a1.442 1.442 0 01-1.441-1.443c-.002-.798.644-1.445 1.438-1.445s1.439.648 1.439 1.445a1.443 1.443 0 01-1.44 1.445z" fill="#fff"/></mask><g mask="url(#prefix__a)"><path d="M372.02 41.488h-95.04v84.24h95.04v-84.24z" fill="#fff"/></g></g><path d="M445.5 84.688h30m-15-15v30" stroke="#000" stroke-linecap="round" stroke-width="4"/><g clip-path="url(#prefix__d)"><path d="M656.5 24.688h-120v120h120v-120z" fill="url(#prefix__e)"/><g filter="url(#prefix__f)"><path d="M615.367 53.047c-4.699 0-9.06 1.472-12.65 3.978-4.724-2.75-10.105-4.212-15.709-4.212-8.428 0-16.35 3.31-22.306 9.316-5.943 5.99-9.218 13.96-9.218 22.44 0 8.47 3.275 16.44 9.218 22.44 5.956 5.994 13.878 9.304 22.306 9.304s16.35-3.309 22.305-9.317a31.712 31.712 0 006.575-9.675c11.974-.277 21.628-10.1 21.628-22.14 0-12.04-9.936-22.15-22.149-22.15zm-28.359 58.594c-14.822.01-26.836-12.11-26.836-27.07 0-14.935 12.014-27.055 26.836-27.055 4.296 0 8.353 1.019 11.953 2.833a22.057 22.057 0 00-5.742 14.864c0 10.685 7.605 19.626 17.688 21.698-4.444 8.756-13.477 14.747-23.9 14.747zm30.532-19.11a17.73 17.73 0 01-4.854-.07c-8.372-1.283-14.78-8.517-14.78-17.249 0-4.825 1.955-9.189 5.114-12.348a17.52 17.52 0 013.872-2.922 17.362 17.362 0 018.475-2.19c9.645 0 17.461 7.815 17.461 17.46 0 8.91-6.67 16.26-15.288 17.327z" fill="#fff"/></g></g></g><defs><clipPath id="prefix__a"><path d="M0 0h920v170H0z" fill="#fff"/></clipPath><clipPath id="prefix__b"><path d="M0 0h120v120H0z" fill="#fff" transform="translate(264.5 24.688)"/></clipPath><clipPath id="prefix__d"><path d="M0 0h120v120H0z" fill="#fff" transform="translate(536.5 24.688)"/></clipPath><linearGradient id="prefix__e" x1="596.5" x2="596.5" y1="144.688" y2="24.688" gradientUnits="userSpaceOnUse"><stop stop-color="#1BABE0"/><stop offset=".12" stop-color="#18A0DC"/><stop offset=".23" stop-color="#1393D7"/><stop offset=".36" stop-color="#0D85CF"/><stop offset=".61" stop-color="#0066B4"/><stop offset=".74" stop-color="#0058A4"/><stop offset=".88" stop-color="#004B90"/><stop offset="1" stop-color="#004186"/></linearGradient><filter id="prefix__f" width="86.031" height="67.516" x="553.484" y="50.813" color-interpolation-filters="sRGB" filterUnits="userSpaceOnUse"><feFlood flood-opacity="0" result="BackgroundImageFix"/><feColorMatrix in="SourceAlpha" result="hardAlpha" values="0 0 0 0 0 0 0 0 0 0 0 0 0 0 0 0 0 0 127 0"/><feOffset/><feGaussianBlur stdDeviation="1"/><feColorMatrix values="0 0 0 0 0 0 0 0 0 0 0 0 0 0 0 0 0 0 0.17 0"/><feBlend in2="BackgroundImageFix" result="effect1_dropShadow_6_28"/><feBlend in="SourceGraphic" in2="effect1_dropShadow_6_28" result="shape"/></filter></defs></svg>